HIERARCHY
ROOT Hips
{
	OFFSET 0.000000 0.000000 0.000000
	CHANNELS 6 Xposition Yposition Zposition Yrotation Xrotation Zrotation
	JOINT Chest
	{
		OFFSET 0.000000 -0.009281 11.569106
		CHANNELS 3 Yrotation Xrotation Zrotation
		JOINT Chest2
		{
			OFFSET -0.000000 0.016865 9.269641
			CHANNELS 3 Yrotation Xrotation Zrotation
			JOINT Chest3
			{
				OFFSET -0.000000 0.000001 8.374491
				CHANNELS 3 Yrotation Xrotation Zrotation
				JOINT Chest4
				{
					OFFSET -0.000000 0.000001 8.374493
					CHANNELS 3 Yrotation Xrotation Zrotation
					JOINT Neck
					{
						OFFSET -0.000000 0.000002 12.152554
						CHANNELS 3 Yrotation Xrotation Zrotation
						JOINT Head
						{
							OFFSET -0.000000 0.040101 7.802319
							CHANNELS 3 Yrotation Xrotation Zrotation
							End Site
							{
								OFFSET -0.000000 0.020947 14.853096
							}
						}
					}
					JOINT RightCollar
					{
						OFFSET 2.894404 0.000001 6.791374
						CHANNELS 3 Yrotation Xrotation Zrotation
						JOINT RightShoulder
						{
							OFFSET 13.574684 0.000001 0.000000
							CHANNELS 3 Yrotation Xrotation Zrotation
							JOINT RightElbow
							{
								OFFSET 23.923903 0.000002 0.000000
								CHANNELS 3 Yrotation Xrotation Zrotation
								JOINT RightWrist
								{
									OFFSET 19.846718 0.012767 0.000000
									CHANNELS 3 Yrotation Xrotation Zrotation
									End Site
									{
										OFFSET 14.973145 0.000001 0.000000
									}
								}
							}
						}
					}
					JOINT LeftCollar
					{
						OFFSET -2.894404 0.000001 6.791374
						CHANNELS 3 Yrotation Xrotation Zrotation
						JOINT LeftShoulder
						{
							OFFSET -13.574684 -0.000001 0.000000
							CHANNELS 3 Yrotation Xrotation Zrotation
							JOINT LeftElbow
							{
								OFFSET -23.923903 -0.000002 0.000000
								CHANNELS 3 Yrotation Xrotation Zrotation
								JOINT LeftWrist
								{
									OFFSET -19.846718 0.012763 0.000000
									CHANNELS 3 Yrotation Xrotation Zrotation
									End Site
									{
										OFFSET -14.973145 -0.000001 0.000000
									}
								}
							}
						}
					}
				}
			}
		}
	}
	JOINT RightHip
	{
		OFFSET 9.469263 0.004643 0.045487
		CHANNELS 3 Yrotation Xrotation Zrotation
		JOINT RightKnee
		{
			OFFSET 0.000000 0.002661 -40.478676
			CHANNELS 3 Yrotation Xrotation Zrotation
			JOINT RightAnkle
			{
				OFFSET 0.000000 0.049106 -35.224068
				CHANNELS 3 Yrotation Xrotation Zrotation
				JOINT RightToe
				{
					OFFSET -0.000001 12.539529 -6.151390
					CHANNELS 3 Yrotation Xrotation Zrotation
					End Site
					{
						OFFSET -0.000001 5.044994 -1.291870
					}
				}
			}
		}
	}
	JOINT LeftHip
	{
		OFFSET -9.469263 0.004641 0.045487
		CHANNELS 3 Yrotation Xrotation Zrotation
		JOINT LeftKnee
		{
			OFFSET 0.000000 0.002661 -40.478676
			CHANNELS 3 Yrotation Xrotation Zrotation
			JOINT LeftAnkle
			{
				OFFSET 0.000000 0.049106 -35.224068
				CHANNELS 3 Yrotation Xrotation Zrotation
				JOINT LeftToe
				{
					OFFSET -0.000001 12.539529 -6.151390
					CHANNELS 3 Yrotation Xrotation Zrotation
					End Site
					{
						OFFSET -0.000001 5.044994 -1.291870
					}
				}
			}
		}
	}
}
MOTION
Frames: 15
Frame Time: 0.016667
19.513443 -8.810162 82.696495 -3.464634 1.062903 -118.539832 -1.858430 -4.710775 2.831439 -0.706256 -2.167729 1.237004 -0.706256 -2.167730 1.237004 -0.525242 -1.627237 0.925135 1.853316 -11.802499 -4.238025 1.720601 14.250667 -7.317393 9.742125 5.415873 -2.390423 42.074997 -15.921705 -13.102686 -25.535309 -61.070682 86.008529 -42.891723 38.867717 50.815829 -7.907299 5.492176 -6.912135 -40.829904 -9.679804 20.072977 -1.989407 -64.545732 -60.796832 30.164342 16.339698 -75.202316 -8.354429 3.792818 -15.663193 5.605248 -20.550287 -15.385602 -5.216605 7.838075 -4.576008 1.398174 -0.202064 0.135305 0.506257 -2.349795 10.470448 0.329365 -4.240422 4.107731 -0.271300 2.324183 7.975662 -0.293196 1.165005 -0.121623 
19.902700 -8.253812 82.718102 -3.049832 1.303804 -118.838899 -1.841633 -4.352210 3.007035 -0.701639 -2.145806 1.273834 -0.701639 -2.145806 1.273835 -0.521696 -1.610829 0.952800 1.805251 -11.786313 -4.283677 1.608179 14.277203 -7.426089 9.826382 5.266087 -2.310800 42.163687 -16.044295 -13.062969 -25.071852 -61.080913 85.583466 -43.020066 39.134231 50.803651 -7.775773 5.242066 -6.874137 -40.892332 -9.351647 19.801449 -1.479750 -64.424906 -61.082095 29.966140 16.071225 -75.189338 -9.253860 5.004881 -13.710997 7.212930 -20.457301 -13.668014 -5.691993 7.353543 -8.315916 0.768906 -0.541408 0.352172 0.247634 -1.419705 8.271726 -0.107597 -5.441566 5.513500 -0.282056 2.810579 8.943137 0.125949 1.234528 -0.108795 
20.104858 -7.625764 82.774536 -3.190225 1.288705 -118.661109 -1.836437 -4.531871 2.769968 -0.673149 -2.117154 1.301532 -0.673149 -2.117154 1.301535 -0.500297 -1.589309 0.973706 1.767063 -11.834834 -4.336853 1.514619 14.183802 -7.542868 9.852825 5.310907 -2.312692 42.341101 -16.198055 -13.356847 -25.216773 -60.991219 85.666760 -43.198453 39.524194 50.799016 -7.692848 5.267089 -6.744788 -40.948695 -9.389149 19.574419 -1.294822 -64.390666 -61.230843 29.826603 15.592232 -74.988292 -9.454189 5.028177 -12.658520 7.389638 -20.417263 -16.138946 -5.175733 7.927759 -6.715563 0.530476 -0.907535 0.092363 -0.086492 -0.848772 5.875335 -0.358929 -6.621301 6.552202 -0.147668 2.890983 9.601147 0.232219 1.389960 -0.101574 
20.108837 -6.949703 82.853386 -3.128746 1.325853 -118.612765 -1.792901 -4.509649 2.733007 -0.645054 -2.080045 1.305746 -0.645054 -2.080045 1.305750 -0.479295 -1.561422 0.977010 1.753161 -11.881926 -4.379393 1.472147 14.094467 -7.628743 9.831084 5.366988 -2.277644 42.464181 -16.057025 -13.762070 -25.606144 -60.969759 85.986645 -43.244076 39.731805 50.833014 -7.749902 5.364594 -6.719549 -40.785938 -9.497756 19.493606 -1.304387 -64.515932 -61.454682 29.880155 15.119025 -74.822509 -9.375019 4.988267 -12.162287 6.455338 -20.830948 -18.767610 -4.186244 8.722317 -4.080953 0.785324 -0.993028 0.047603 -0.422206 -0.006791 4.477820 -0.164968 -7.551904 6.036350 0.062051 2.714981 10.039341 0.073898 1.404325 -0.096331 
20.043577 -6.206031 82.897621 -2.934726 1.371820 -118.554517 -1.749769 -4.383362 2.727066 -0.606162 -2.043526 1.279035 -0.606162 -2.043527 1.279034 -0.450297 -1.533923 0.957147 1.749201 -11.913945 -4.386668 1.463085 14.034645 -7.643305 9.789813 5.335917 -2.173926 42.472032 -15.738233 -14.024239 -25.742303 -61.026497 86.073170 -43.142610 39.693552 50.902979 -7.907500 5.486002 -6.682534 -40.533382 -9.675488 19.499849 -1.170800 -64.731151 -61.809544 30.014143 14.898620 -74.705269 -9.269619 5.553640 -9.856464 6.237038 -21.083061 -19.410440 -4.032740 8.731262 -4.638336 1.023308 -0.957059 0.084767 -0.816789 0.745910 3.737498 0.810158 -7.845909 3.380104 -0.137648 2.313781 10.304645 -0.063044 1.225095 -0.088145 
19.848202 -5.537348 82.947411 -2.673551 1.316676 -118.509519 -1.686226 -4.298527 2.730416 -0.557452 -2.008236 1.254618 -0.557452 -2.008236 1.254614 -0.413924 -1.507329 0.939034 1.765795 -11.904872 -4.373879 1.499831 14.052676 -7.611999 9.759444 5.266132 -2.119167 42.378336 -15.526207 -14.067723 -25.790567 -61.042405 86.107505 -43.022515 39.623389 50.981823 -7.948686 5.422611 -6.646209 -40.518089 -9.820909 19.409021 -1.094047 -64.791953 -61.901178 30.149531 14.895912 -74.570667 -8.564937 6.397067 -6.239336 5.936327 -20.941427 -17.791062 -3.864964 8.481889 -6.398657 0.665889 -1.089162 0.164499 -0.853571 1.341842 2.816167 1.938511 -7.643721 -0.628438 -0.592269 1.690033 10.599554 -0.246135 1.007546 -0.067815 
19.604904 -4.968856 83.026543 -2.382376 1.321235 -118.189484 -1.687911 -4.142459 2.437585 -0.531615 -2.011982 1.236540 -0.531616 -2.011985 1.236541 -0.394600 -1.510071 0.925559 1.825181 -11.856851 -4.350037 1.621245 14.145341 -7.542346 9.794566 5.390546 -2.110654 42.230903 -15.640763 -14.042340 -25.939187 -60.958912 86.260843 -42.996543 39.632261 51.020752 -7.906445 5.333020 -6.685833 -40.735125 -9.952954 19.392859 -1.250084 -64.615379 -61.612206 30.142431 14.982491 -74.494510 -7.260924 6.801562 -3.598886 4.477142 -20.250739 -13.899112 -3.050545 8.743061 -7.090935 -0.208877 -1.663011 0.161918 -0.539986 1.834151 0.915473 2.589298 -6.920917 -4.774591 -0.961577 0.661255 10.459247 -0.538804 0.928996 -0.053617 
19.350994 -4.482839 83.124191 -2.411361 1.126761 -117.989687 -1.655513 -4.271655 2.318673 -0.552140 -2.056190 1.195918 -0.552141 -2.056191 1.195920 -0.410038 -1.543232 0.894987 1.936012 -11.806856 -4.326016 1.841230 14.243929 -7.450072 9.817796 5.497321 -2.195014 42.112245 -15.822789 -13.852228 -26.082392 -60.878043 86.433291 -43.043043 39.600969 50.987516 -7.828281 5.194193 -6.785899 -40.932463 -9.883682 19.454973 -1.454105 -64.474909 -61.322545 30.093926 15.173882 -74.562846 -5.857011 6.332384 -1.946272 2.665905 -19.414811 -8.563039 -2.151228 9.511604 -6.931712 -1.033898 -2.265768 0.137899 -0.071273 2.016079 -2.162767 2.983624 -6.378411 -7.561749 -1.337448 -0.229214 9.671597 -0.861056 0.923745 0.022373 
19.035934 -3.918468 83.202354 -2.359407 1.079901 -117.629641 -1.688570 -4.245752 2.137697 -0.606656 -2.087160 1.148713 -0.606656 -2.087160 1.148714 -0.451018 -1.566518 0.859369 2.077157 -11.777480 -4.337575 2.105073 14.304436 -7.412050 9.762008 5.285132 -2.373691 42.127121 -15.732928 -13.479031 -25.967046 -60.806381 86.358323 -42.998209 39.362510 50.946927 -7.746531 4.894062 -6.999667 -40.916675 -9.576216 19.445613 -1.518596 -64.478447 -61.302464 30.156740 15.464597 -74.850001 -4.702179 5.990567 0.176866 1.161303 -18.840459 -4.749429 -0.537764 10.650527 -5.034487 -2.048803 -2.770052 0.118521 0.180811 2.478222 -5.929043 3.402760 -5.877852 -8.978420 -1.797132 -1.218556 8.166587 -1.104855 1.017460 0.083850 
18.649961 -3.310524 83.234200 -2.292292 1.019669 -117.353442 -1.697060 -4.201902 2.099212 -0.660895 -2.084197 1.128460 -0.660896 -2.084197 1.128459 -0.491768 -1.564376 0.843999 2.194144 -11.794110 -4.396741 2.304290 14.277216 -7.474356 9.716143 4.998365 -2.487277 42.213694 -15.502721 -13.283313 -25.743586 -60.687774 86.180800 -42.840097 38.994062 50.942256 -7.676712 4.739853 -7.092636 -40.839064 -9.563342 19.357321 -1.199275 -64.479226 -61.660407 30.271272 15.798945 -75.151178 -3.584190 5.806526 4.091455 0.054400 -18.614120 -2.882065 1.859032 11.922343 -2.309925 -3.217372 -3.175125 0.119513 0.392626 3.076927 -9.667428 3.718014 -5.512562 -9.457811 -2.381858 -2.044352 6.214854 -1.112006 1.035452 0.169159 
18.330095 -2.745544 83.220932 -2.334436 0.853653 -117.365162 -1.639892 -4.274473 2.313374 -0.690338 -2.051359 1.140946 -0.690338 -2.051358 1.140943 -0.513869 -1.539815 0.853300 2.241107 -11.868496 -4.473805 2.364388 14.139393 -7.599707 9.706594 4.963939 -2.447213 42.202561 -15.365839 -13.395735 -25.645279 -60.684079 86.202718 -42.728601 38.693892 50.927321 -7.680451 4.902476 -6.957894 -40.803328 -9.923510 19.349656 -0.646758 -64.428416 -62.215121 30.314159 15.965830 -75.219576 -2.666131 5.608864 8.808305 -0.439541 -18.687807 -1.739451 4.208002 13.150007 0.187771 -4.195798 -3.434812 0.139264 0.733051 3.269263 -12.331871 3.781558 -4.864097 -9.890044 -3.025380 -2.568441 4.408531 -0.853755 0.816520 0.173756 
18.177273 -2.353624 83.160835 -2.443173 0.564498 -117.659093 -1.450676 -4.472630 2.729292 -0.702917 -1.997383 1.173210 -0.702918 -1.997384 1.173213 -0.523301 -1.499396 0.877523 2.219232 -11.970313 -4.535506 2.300814 13.947997 -7.724477 9.697656 5.150373 -2.317957 42.028811 -15.394893 -13.575139 -25.681212 -60.857744 86.455694 -42.689577 38.494103 50.881685 -7.715953 5.085562 -6.783152 -40.791478 -10.084644 19.436215 -0.336328 -64.438067 -62.527595 30.269179 15.831171 -75.139171 -1.944435 5.646931 13.010973 -0.430845 -19.278438 -1.121395 5.971133 14.004060 2.364086 -4.639323 -3.262571 0.123571 1.331630 2.944984 -13.193916 3.561002 -3.925003 -10.444847 -3.913229 -2.646587 2.674338 -0.173311 0.352035 0.125040 
18.179008 -2.134721 83.052635 -2.554308 0.217172 -117.998130 -1.182219 -4.709347 3.120792 -0.703133 -1.965192 1.208676 -0.703133 -1.965191 1.208680 -0.523412 -1.475293 0.904160 2.155907 -12.043385 -4.563215 2.171437 13.808810 -7.802553 9.689409 5.327519 -2.153211 41.799962 -15.540482 -13.574436 -25.616537 -61.040827 86.623806 -42.634806 38.352328 50.860597 -7.756184 5.274059 -6.653152 -40.750186 -9.929319 19.583180 -0.532324 -64.621403 -62.352940 30.219246 15.523215 -75.085205 -1.536389 5.972032 15.748331 -0.079435 -20.148057 -1.318338 6.907994 13.788608 4.275479 -4.347836 -2.273097 0.045771 1.894169 2.394018 -12.414509 3.195285 -3.197676 -10.626773 -5.107166 -2.272633 0.997864 0.961613 -0.213963 0.044424 
18.347712 -1.868412 82.917747 -2.714178 0.093521 -118.096757 -1.106605 -4.873458 3.260984 -0.691624 -1.985924 1.227663 -0.691624 -1.985924 1.227665 -0.514678 -1.490843 0.918409 2.068395 -12.050427 -4.559525 2.006169 13.791745 -7.832735 9.682048 5.499245 -2.039002 41.665978 -15.863927 -13.415232 -25.509039 -61.081617 86.632378 -42.584945 38.294125 50.868063 -7.814356 5.534155 -6.575322 -40.691620 -9.776384 19.760931 -0.851619 -64.881702 -62.039954 30.185208 15.423880 -75.091223 -1.860126 6.499126 16.467448 0.520395 -21.120084 -2.455032 7.556265 13.055634 6.334051 -3.771625 -1.076311 -0.024142 1.993052 1.895456 -10.690197 2.903606 -2.641477 -10.243361 -5.745740 -1.957941 -0.907740 1.592974 -0.655116 -0.151021 
18.489151 -1.525243 82.767776 -2.859993 0.148456 -117.952545 -1.151412 -4.952489 3.154031 -0.682411 -2.038361 1.227774 -0.682410 -2.038360 1.227773 -0.507659 -1.530151 0.918459 1.979298 -11.998339 -4.528521 1.846577 13.884999 -7.813180 9.709445 5.554959 -1.990770 41.654725 -16.175150 -13.122866 -25.586172 -61.024264 86.630937 -42.565520 38.392053 50.901879 -7.888864 5.648760 -6.607848 -40.648785 -9.744404 19.889598 -1.044004 -64.968664 -61.796014 30.237589 15.599976 -75.070527 -2.593932 6.757120 14.582654 0.124959 -21.842552 -2.398174 8.068003 12.405393 8.488375 -2.857495 -0.133745 -0.069230 1.546276 1.173368 -8.894120 3.230138 -1.475084 -9.584291 -6.405126 -1.907015 -2.698073 1.895149 -1.140971 -0.109345 
